<svg height="512" viewBox="0 0 64 64" width="512" xmlns="http://www.w3.org/2000/svg"><g id="Fill_Outline" data-name="Fill Outline"><circle cx="32" cy="35" fill="#f9e109" r="4"/><path d="m42 43a2 2 0 0 0 0-4h-20a2 2 0 0 0 0 4h6v5.45l-2.71 4.55a2 2 0 0 0 -.15 1.77l2 5a2 2 0 0 0 1.86 1.23 2.11 2.11 0 0 0 .74-.14 2 2 0 0 0 1.12-2.6l-1.63-4.08 2.48-4.18a1.7 1.7 0 0 0 .18-.39l1.75 5.15a2 2 0 0 0 1.25 1.24l5.11 1.75a2 2 0 0 0 2.16-.6 1.94 1.94 0 0 0 .37-.66 2 2 0 0 0 -1.26-2.49l-4.16-1.4-1.11-3.6v-6z" fill="#fcbc04"/><path d="m32 3a6 6 0 0 1 6 6v8a0 0 0 0 1 0 0h-12a0 0 0 0 1 0 0v-8a6 6 0 0 1 6-6z" fill="#f89c8d"/><path d="m46 18-8-1v-6.73a5.23 5.23 0 0 1 6.89-5 5.24 5.24 0 0 1 3.27 6.76z" fill="#7fcaf3"/><path d="m54.55 11.55a4.1 4.1 0 0 0 -6.75 1.45l-1.8 5 6 3 3-4.18a4.08 4.08 0 0 0 -.45-5.27z" fill="#f89c8d"/><path d="m59.8 18.9v-.07a3.56 3.56 0 0 0 -6-.3l-1.8 2.47 2.18 2.18a3.56 3.56 0 0 0 5.31-.29 3.57 3.57 0 0 0 .31-3.99z" fill="#7fcaf3"/><path d="m18 18 8-1v-6.73a5.23 5.23 0 0 0 -6.89-5 5.24 5.24 0 0 0 -3.27 6.76z" fill="#7fcaf3"/><path d="m9.45 11.55a4.1 4.1 0 0 1 6.75 1.45l1.8 5-6 3-3-4.18a4.08 4.08 0 0 1 .45-5.27z" fill="#f89c8d"/><path d="m4.2 18.9v-.07a3.56 3.56 0 0 1 6-.3l1.8 2.47-2.18 2.18a3.56 3.56 0 0 1 -5.31-.29 3.57 3.57 0 0 1 -.31-3.99z" fill="#7fcaf3"/><path d="m56 47a3.17 3.17 0 0 0 -.53 0 4 4 0 0 0 -3.47-2 4 4 0 0 0 -3.89 3.09 2 2 0 0 0 -.61-.09 2.5 2.5 0 0 0 0 5 2.45 2.45 0 0 0 1.94-1 3.94 3.94 0 0 0 4.72.31 3 3 0 1 0 1.84-5.31z" fill="#aae1f9"/><path d="m11 31a3 3 0 0 0 -2.92 2.32 2 2 0 1 0 .66 2.68 3 3 0 1 0 2.26-5z" fill="#aae1f9"/><path d="m17 49h-.18a3 3 0 0 0 -5.74.3 2 2 0 1 0 .66 2.7 3 3 0 0 0 3.94.53 2 2 0 1 0 1.32-3.53z" fill="#aae1f9"/><path d="m57 51a3 3 0 0 1 -1.84-.64 3.94 3.94 0 0 1 -4.72-.31 2.45 2.45 0 0 1 -1.94 1 2.5 2.5 0 0 1 -2.5-2.54 2.49 2.49 0 0 0 1.5 4.49 2.45 2.45 0 0 0 1.94-1 3.94 3.94 0 0 0 4.72.31 3 3 0 0 0 4.84-2.07 3 3 0 0 1 -2 .76z" fill="#7fcaf3"/><path d="m12 35a3 3 0 0 1 -2.26-1 2 2 0 0 1 -1.74 1 2 2 0 0 1 -2-1.74 2 2 0 0 0 1 3.74 2 2 0 0 0 1.74-1 3 3 0 0 0 5.26-1.76 3 3 0 0 1 -2 .76z" fill="#7fcaf3"/><path d="m18 51a2 2 0 0 1 -1.32-.51 3 3 0 0 1 -3.94-.49 2 2 0 0 1 -1.74 1 2 2 0 0 1 -2-1.74 2 2 0 0 0 1 3.74 2 2 0 0 0 1.74-1 3 3 0 0 0 3.94.53 2 2 0 0 0 3.32-1.53 2.06 2.06 0 0 0 0-.26 2 2 0 0 1 -1 .26z" fill="#7fcaf3"/><path d="m34 39h8a2 2 0 0 1 2 2 0 0 0 0 1 0 0h-8a2 2 0 0 1 -2-2 0 0 0 0 1 0 0z" fill="#f9e109"/><path d="m34 37a4 4 0 0 1 -4-4 3.9 3.9 0 0 1 .36-1.64 4 4 0 1 0 5.28 5.28 3.9 3.9 0 0 1 -1.64.36z" fill="#fcbc04"/><path d="m42.56 56.38a2 2 0 0 0 -1.29-2.38l-4.16-1.4-1.11-3.6v-4a2 2 0 0 0 -2 2v1.42a3.09 3.09 0 0 0 .21 1.12l1.29 3.21a3 3 0 0 0 1.76 1.71z" fill="#f9e109"/><path d="m42 8a5.91 5.91 0 0 1 .78-2.95 5.24 5.24 0 0 0 -4.78 5.22v6.73l8 1 1.46-4a6 6 0 0 1 -5.46-6z" fill="#57b7eb"/><path d="m51 13.5a4.46 4.46 0 0 1 1.26-3.11 4.09 4.09 0 0 0 -4.46 2.61l-1.8 5 6 3 2.28-3.19a4.48 4.48 0 0 1 -3.28-4.31z" fill="#f8664f"/><path d="m56 19a4 4 0 0 1 .52-1.94 3.49 3.49 0 0 0 -2.75 1.47l-1.77 2.47 2.18 2.18a3.56 3.56 0 0 0 5.26-.24 4 4 0 0 1 -3.44-3.94z" fill="#57b7eb"/><path d="m36.5 13a7.5 7.5 0 0 1 -7.5-7.5 7.75 7.75 0 0 1 .23-1.82 6 6 0 0 0 -3.23 5.32v8h12v-4.15a7.41 7.41 0 0 1 -1.5.15z" fill="#f8664f"/><path d="m22 11a6 6 0 0 1 -5.54-3.71 5.24 5.24 0 0 0 -.62 4.77l2.16 5.94 8-1v-6.73a4.56 4.56 0 0 0 -.06-.75 6 6 0 0 1 -3.94 1.48z" fill="#57b7eb"/><path d="m16.2 13a4.05 4.05 0 0 0 -2.31-2.38 6.48 6.48 0 0 1 -5.35 5.25 3.61 3.61 0 0 0 .48.91l2.98 4.22 6-3z" fill="#f8664f"/><path d="m10.23 18.53a3.51 3.51 0 0 0 -3.23-1.47 5 5 0 0 1 1 2.94 5 5 0 0 1 -2 4 3.56 3.56 0 0 0 3.81-.79l2.19-2.21z" fill="#57b7eb"/><g fill="#39519d"><path d="m60.67 18.4v-.07a4.56 4.56 0 0 0 -3.77-2.33 3.05 3.05 0 0 0 -.43 0 5.08 5.08 0 0 0 -5.92-6.58 4.54 4.54 0 0 0 -1.09.38 6.24 6.24 0 0 0 -4.25-5.5 6.17 6.17 0 0 0 -5.62.86 6.4 6.4 0 0 0 -1.14 1.06 7 7 0 0 0 -12.9 0 6.4 6.4 0 0 0 -1.14-1.06 6.23 6.23 0 0 0 -9.26 2.34 6.1 6.1 0 0 0 -.61 2.3 4.54 4.54 0 0 0 -1.09-.38 5.08 5.08 0 0 0 -5.92 6.58 3.05 3.05 0 0 0 -.43 0 4.55 4.55 0 0 0 -3.73 2.3v.06a4.56 4.56 0 0 0 3.63 6.86h.25a4.53 4.53 0 0 0 2.86-1l11.29 5.65 3.15 8.13h-2.55a3 3 0 0 0 0 6h5v4.17l-2.57 4.29a3 3 0 0 0 -.22 2.65l2 5a3 3 0 0 0 5.55.07 3 3 0 0 0 0-2.29l-1.45-3.62 1.32-2.2 1 3a3 3 0 0 0 1.95 1.93l5.1 1.71a3 3 0 0 0 3.24-.91 2.9 2.9 0 0 0 .56-1 3 3 0 0 0 -1.89-3.8l-4.17-1.4a1 1 0 0 0 -.63 1.9l4.21 1.41a1 1 0 0 1 .63 1.26 1.06 1.06 0 0 1 -.18.33 1 1 0 0 1 -1.08.3l-5.11-1.71a1 1 0 0 1 -.63-.63l-1.74-5.14a1 1 0 0 0 -1-.68 1 1 0 0 0 -.94.68 1.72 1.72 0 0 1 -.09.19l-2.49 4.15a1 1 0 0 0 -.07.89l1.63 4.08a1 1 0 0 1 -.56 1.3 1 1 0 0 1 -1.3-.56l-2-5a1 1 0 0 1 .07-.88l2.72-4.49a1 1 0 0 0 .14-.51v-1.49h6v2a1 1 0 0 0 2 0v-5h5a3 3 0 0 0 0-6h-2.55l3.11-8.16 11.29-5.65a4.53 4.53 0 0 0 2.86 1h.29a4.56 4.56 0 0 0 3.71-6.82zm-14.13 1 4.87 2.43.9.91-8.7 4.35zm-4.54 6.36-2.52-7.57 5.16.64zm9-14.34a3.09 3.09 0 0 1 3.19 4.82l-1.34 1.88-1.15 1.6-4.46-2.22 1.5-4.12a3.08 3.08 0 0 1 2.26-1.96zm-10.24-4.59a4.24 4.24 0 0 1 6.46 4.89l-.36 1-1.12 3.08-.41 1.13-6.33-.81v-5.85a4.2 4.2 0 0 1 1.76-3.44zm-28.17 15 4.87-2.43 2.93 7.69-8.7-4.35zm6.8-3 5.16-.64-2.55 7.57zm-2.39-10.41a4.17 4.17 0 0 1 2.47-2.17 4.27 4.27 0 0 1 1.31-.25 4.26 4.26 0 0 1 4.22 4.27v5.85l-6.33.79-.41-1.13-1.12-3.08-.36-1a4.16 4.16 0 0 1 .22-3.28zm-6.79 3.83a3.11 3.11 0 0 1 2.18-.9 3.14 3.14 0 0 1 .68.07 3.08 3.08 0 0 1 2.24 2l1.5 4.12-4.44 2.22-.61-.85-1.93-2.67a3.1 3.1 0 0 1 .33-3.99zm-3 11a2.55 2.55 0 0 1 -2.08-3.83l-.93-.52.91.43a2.48 2.48 0 0 1 2.09-1.33 2.5 2.5 0 0 1 2.22 1.07l1.27 1.78-1.58 1.63a2.52 2.52 0 0 1 -1.96.74zm14.79 18.75a1 1 0 0 1 0-2h6.38l-1 2zm7-7a3 3 0 1 1 3 3 3 3 0 0 1 -3-3zm0 10v-1.76l1.62-3.24h2.76l1.62 3.24v1.76zm14-4a1 1 0 0 1 -1 1h-5.38l-1-2h6.38a1 1 0 0 1 1 1zm-7-3a4.92 4.92 0 0 0 1-3 5 5 0 0 0 -10 0 4.92 4.92 0 0 0 1 3h-1.31l-3.54-9.29 3.57-10.71h7.28a1 1 0 0 0 0-2h-7v-7a5 5 0 0 1 10 0v8a.81.81 0 0 0 .06.31l3.8 11.39-3.55 9.3zm22.71-15.73a2.57 2.57 0 0 1 -1.86.95 2.54 2.54 0 0 1 -2-.74l-1.58-1.59 1.27-1.78a2.57 2.57 0 0 1 4.31.21v.07a2.55 2.55 0 0 1 -.14 2.88z"/><path d="m56 46a5 5 0 0 0 -8.56 1 3.5 3.5 0 1 0 2.12 6.34 4.93 4.93 0 0 0 2.44.66 1 1 0 0 0 0-2 3 3 0 0 1 -1.91-.71 1 1 0 0 0 -.74-.23 1 1 0 0 0 -.69.37 1.49 1.49 0 1 1 -1.16-2.43 2 2 0 0 1 .37 0 1 1 0 0 0 .76-.11 1 1 0 0 0 .46-.63 3 3 0 0 1 5.51-.77 1 1 0 0 0 1 .5 2 2 0 0 1 .4.01 2 2 0 0 1 0 4 1 1 0 0 0 0 2 4 4 0 0 0 4-4 4 4 0 0 0 -4-4z"/><path d="m8.84 37.36a4 4 0 1 0 -1.33-5.36 4.38 4.38 0 0 0 -.51 0 3 3 0 0 0 0 6 2.94 2.94 0 0 0 1.84-.64zm-2.84-2.36a1 1 0 0 1 1-1 1 1 0 0 1 .54.16 1 1 0 0 0 1.52-.61 2 2 0 1 1 1.94 2.45 2 2 0 0 1 -1.5-.7 1 1 0 0 0 -.76-.3h-.1a1 1 0 0 0 -.77.52 1 1 0 0 1 -1.87-.52z"/><path d="m17.47 48a4 4 0 0 0 -7 0 4.38 4.38 0 0 0 -.47 0 3 3 0 0 0 0 6 2.94 2.94 0 0 0 1.84-.64 4.06 4.06 0 0 0 3.78.3 3 3 0 1 0 1.85-5.66zm-.47 4a1 1 0 0 1 -.66-.26 1 1 0 0 0 -.66-.25 1 1 0 0 0 -.56.17 2 2 0 0 1 -2.62-.36 1 1 0 0 0 -.86-.34 1 1 0 0 0 -.77.52 1 1 0 1 1 -.87-1.48 1 1 0 0 1 .54.16 1 1 0 0 0 1.52-.61 2 2 0 0 1 3.82-.2 1 1 0 0 0 1 .66h.12a1 1 0 0 1 0 2z"/></g></g></svg>